<?xml version="1.0" standalone="no"?>
<!DOCTYPE svg PUBLIC "-//W3C//DTD SVG 20010904//EN"
 "http://www.w3.org/TR/2001/REC-SVG-20010904/DTD/svg10.dtd">
<svg version="1.0" xmlns="http://www.w3.org/2000/svg"
 width="400.000000pt" height="400.000000pt" viewBox="0 0 400.000000 400.000000"
 preserveAspectRatio="xMidYMid meet">
<metadata>
Created by potrace 1.14, written by Peter Selinger 2001-2017
</metadata>
<g transform="translate(0.000000,400.000000) scale(0.100000,-0.100000)"
fill="#000000" stroke="none">
<path d="M430 2500 l0 -220 240 0 c132 0 240 -3 240 -7 0 -3 -74 -226 -165
-495 l-165 -488 232 2 231 3 27 80 27 80 253 0 253 0 27 -80 27 -80 654 -3
c383 -1 680 2 717 7 120 19 224 87 295 193 48 75 69 144 68 235 0 185 -86 307
-302 429 -125 71 -144 86 -136 107 6 15 36 17 302 17 l295 0 0 220 0 220 -388
0 c-476 0 -508 -6 -629 -114 -88 -79 -127 -153 -142 -271 -27 -195 70 -351
299 -481 126 -71 145 -86 137 -107 -6 -15 -41 -17 -377 -17 l-370 0 0 -152 c0
-85 -4 -146 -9 -138 -4 8 -104 300 -221 648 l-214 632 -603 0 -603 0 0 -220z
m989 -502 c35 -106 66 -199 68 -205 4 -10 -27 -13 -137 -13 -108 0 -141 3
-138 13 13 49 134 397 138 397 3 0 34 -87 69 -192z"/>
</g>
</svg>
