<svg width="123" height="139" viewBox="0 0 123 139" fill="none" xmlns="http://www.w3.org/2000/svg">
<path d="M3 131C3 131 47 114 57 78.6493" stroke="white" stroke-width="2.5" stroke-linecap="round"/>
<path d="M5.8277 120.814L2.39031 130.87L14.8926 135.029" stroke="white" stroke-width="2.5" stroke-linecap="round"/>
<path d="M72.3895 31.2716C72.1746 31.4985 71.7786 31.5783 71.2014 31.511L70.6528 30.6976L70.2866 29.5384L70.2923 28.8864L70.422 28.4034L70.4327 28.1235C70.4525 27.5252 70.554 27.0201 70.7373 26.6084C70.7796 26.5134 70.8563 26.4052 70.9672 26.2839L71.0359 26.2575L71.2843 25.8274L71.2319 25.1779L71.4538 24.9352L71.5755 24.534L71.7473 24.2121C71.7844 24.0009 71.8347 23.8241 71.8982 23.6815L71.951 23.5628C72.0779 23.2778 72.1652 22.9751 72.213 22.6548L72.5091 21.9898L72.5332 21.4882L72.6337 21.1345L72.3433 21.1475L71.1602 21.7592L70.1674 22.1994L69.6946 22.5581L68.5987 23.0379L67.5479 23.2246L67.252 23.6336L66.7029 23.5884L66.4916 23.8074L65.8052 23.8148L65.4142 24.1815L64.9232 24.1337L64.1098 24.6823L63.7507 24.7216C63.6997 24.7937 63.601 24.9301 63.4548 25.1306C63.1609 25.1515 62.8793 25.1021 62.6101 24.9822L62.4676 24.9188L62.431 24.3617L62.2862 23.7281L62.4501 23.4879L62.3606 23.0496L62.5534 22.9363L62.5402 22.9019L62.5907 22.469L62.4641 22.2419C62.2972 21.8071 62.183 21.4242 62.1217 21.0933L62.1801 20.5786L62.0589 20.2116L61.9777 19.1793L61.7353 18.4453L61.696 18.0862L61.4562 17.4102L61.2641 16.4993C61.2888 16.3586 61.266 16.1966 61.1957 16.0135C60.8944 16.5625 60.6047 16.9362 60.3265 17.1349L59.5817 17.6572L59.4678 18.2326L59.0214 18.6599L57.8907 19.9211L57.4891 20.3115L57.3042 20.5991L56.5752 21.2138L56.01 21.5883L55.846 22.0845C55.6382 22.2955 55.3802 22.5127 55.0721 22.736L54.9608 23.3695C54.2971 23.6243 53.8465 23.6988 53.609 23.593C53.3556 23.4802 53.2185 23.2769 53.1976 22.9829C53.1431 22.8069 53.1353 22.6327 53.1741 22.4602L53.2164 22.3652C54.0232 21.3203 54.474 20.819 54.5691 20.8613C54.5849 20.8684 54.5893 20.8798 54.5822 20.8957L54.762 20.4919C54.9453 20.0802 55.2411 19.8419 55.6495 19.7771L55.7129 19.6345L56.067 19.223L56.1172 19.0461C56.1525 18.9669 56.3224 18.777 56.6271 18.4762L56.7644 18.4235L57.0737 17.7928L57.491 17.4947L58.376 16.4658L58.5851 15.6766L59.0102 15.5528L59.0419 15.4815L59.5019 14.5763L59.7529 14.2043C59.8568 14.0987 59.9299 13.9985 59.9722 13.9035L60.0145 13.8085L59.9491 12.8686L60.2688 12.4702L60.48 12.5073L60.752 12.3438L60.8128 12.1432L61.2485 11.9957L61.42 12.1858L61.8108 12.0752L62.1222 12.2708L62.5362 12.9389L62.4622 13.1052L62.6125 13.3429L62.4643 13.9315L62.5671 14.148L62.5087 14.6628L62.4189 14.7366L62.5586 14.9981C62.6748 14.9929 62.7724 15.0079 62.8516 15.0432C62.9255 15.133 63.0063 15.2923 63.0942 15.5211L62.9936 15.8748L63.1016 16.2075L63.0458 16.7803L63.6731 18.3119L63.5987 18.9903L63.8493 19.3864L63.8063 20.5057L63.9716 22.1162C63.9803 22.1391 64.0032 22.2156 64.04 22.3459L64.0558 22.4383L64.2933 22.5441L64.6631 22.2249L65.3918 22.1224C65.9323 21.8887 66.2096 21.756 66.2237 21.7243C66.2307 21.7085 66.2184 21.6935 66.1867 21.6794L66.163 21.6688C66.2703 21.6407 66.3979 21.6311 66.5458 21.64C66.5986 21.6066 66.7412 21.5847 66.9735 21.5743C67.1901 21.3862 67.4612 21.2887 67.7868 21.2818L67.9452 21.1816L68.0404 20.9678C68.6319 20.662 69.0641 20.5224 69.3369 20.5489C69.4497 20.2956 69.7973 20.1753 70.3799 20.188L71.0718 19.7845L71.3941 19.4442L71.6553 19.5605C71.9864 19.3284 72.2267 19.1508 72.3764 19.0277L72.7724 19.0333L72.9281 19.131L73.0921 18.6348L73.0898 18.0646L73.6444 17.7139L74.0988 17.2047C74.2413 17.2681 74.3794 17.3201 74.5132 17.3607C74.6469 17.4013 74.7058 17.418 74.69 17.411C74.785 17.4533 74.9714 17.6311 75.2493 17.9446L75.2122 18.1558L75.3783 18.4859L75.3175 18.6865L75.4704 18.9822L75.2987 19.0481C75.494 19.2489 75.5528 19.4363 75.4752 19.6105C75.447 19.6739 75.396 19.746 75.322 19.8269L75.1528 20.2069C75.1633 20.2685 75.1949 20.4533 75.2475 20.7614L75.0521 20.8167L74.9754 20.9249L75.0124 20.9698L74.9144 21.3815L75.1306 21.7909L74.7213 22.0071L74.3699 22.4767L74.367 22.9308L74.0762 23.4559L73.9727 24.2637C73.9267 24.6227 73.8614 24.8972 73.7768 25.0872C73.7275 25.198 73.5893 25.3168 73.3622 25.4433C73.4448 25.556 73.4579 25.6757 73.4015 25.8024C73.3522 25.9132 73.2412 26.0346 73.0686 26.1665L73.1214 26.3038L72.4579 27.6022L72.3913 28.4548L72.0424 29.2386C72.0739 29.4234 72.0826 29.617 72.0684 29.8194C72.0789 29.881 72.1685 30.1486 72.3371 30.6221C72.4267 30.8897 72.4442 31.1062 72.3895 31.2716ZM85.1735 30.3605L84.8406 30.7246C84.6573 31.1363 84.489 31.4504 84.3358 31.6667L84.0875 31.8408L83.9712 32.1021L83.7784 32.2155L83.5591 32.5163L83.1815 32.6612L82.7508 33.181L82.5291 33.1676L82.3177 33.3866L81.9587 33.426L81.5889 33.7452L81.2404 33.7608L81.0898 34.0352L80.5644 34.0006C80.2317 34.1939 79.8973 34.2632 79.5611 34.2085L79.4556 34.1899C79.0858 34.4237 78.7189 34.4596 78.3547 34.2974C78.154 34.3219 77.9508 34.2884 77.7449 34.1967L77.4334 34.2572L77.1641 34.2227L76.7496 34.3228L76.4514 34.1616L76.0765 34.1085L75.7468 33.7625L74.7572 33.2365L74.6441 32.5316L74.3648 31.7526L74.6528 31.4254L74.656 30.4592L74.9598 30.2245L75.0948 29.6016L75.3722 29.2981C75.4392 29.0624 75.4939 28.897 75.5362 28.802C75.6701 28.5011 75.848 28.3147 76.0698 28.2426C76.1562 28.0913 76.3754 27.8759 76.7276 27.5963L76.8463 27.6492L76.8729 27.4618L77.0922 27.161L77.2508 26.8047C77.4409 26.7186 77.5545 26.6553 77.5915 26.6148L77.6683 26.2506L77.7106 26.1556C77.9201 25.9832 78.0778 25.7783 78.1835 25.5408L78.989 25.074C78.989 25.074 79.0119 25.0653 79.0576 25.0477C79.1192 25.0372 79.1729 25.0231 79.2187 25.0055L79.2373 24.9L79.3323 24.9423L79.8683 24.6971L80.1353 24.1614L80.8243 24.212C81.1094 24.1682 81.3577 23.9941 81.5691 23.6898L81.8779 23.8273C82.0943 23.8098 82.2738 23.8328 82.4163 23.8962C82.5589 23.9597 82.6794 24.0513 82.7778 24.171L83.0285 24.3111L83.7518 24.3485L83.9469 24.8054L84.1341 25.088L84.3242 25.1726L84.5958 25.5212L84.7859 25.6058C84.9071 25.8875 85.0283 26.2545 85.1494 26.7069L85.1441 26.8468L85.268 27.0158L85.4813 27.8792L85.4356 29.1965L85.3298 29.434L85.1735 30.3605ZM83.352 30.2326L83.3811 30.1033C83.3196 29.9431 83.3092 29.7961 83.3497 29.6624L83.4739 29.5754L83.461 29.0289L83.7095 28.5988L83.6673 28.4377C83.532 28.1877 83.4775 28.0117 83.504 27.9096C83.3897 27.7828 83.3889 27.5927 83.5017 27.3394L83.3698 27.2522L83.2963 26.6502L83.1565 26.3888L82.7423 25.9767L82.5735 25.8446C82.4785 25.8023 82.4292 25.7424 82.4258 25.665L81.7181 25.976L81.1132 26.5036L80.498 26.5428L80.3105 26.7724L80.0201 26.7854L79.6501 27.3606L79.3016 27.3762C79.1396 27.5697 79.0163 27.7615 78.9317 27.9515L78.393 28.1386L78.48 28.2627C78.3954 28.4527 78.2502 28.5873 78.0442 28.6663C77.9332 28.7877 77.7994 28.9178 77.6427 29.0568L77.5581 29.2468L77.4445 29.3101L77.3414 29.6057L76.7946 30.1306L76.7892 30.2706L76.4931 30.9356L76.25 31.2259L76.1257 31.569L76.202 31.9729L76.4817 32.2397L76.5793 32.3401L76.8116 32.3297L77.408 32.6522L77.6088 32.4569L77.7038 32.4992C77.7988 32.5415 77.8436 32.59 77.8383 32.6445L78.0838 32.6684L78.2421 32.8243L78.6461 32.748L78.7253 32.6979L78.9602 32.7456C79.1486 32.6207 79.4874 32.5629 79.9767 32.572L80.0771 32.4744L80.7002 32.3534L81.1306 32.0897L81.5953 32.0688L81.6719 31.9607L81.907 31.7523L82.0445 31.4435L82.4352 31.3329L82.6043 31.2089L82.7865 31.1193C82.8077 30.901 82.836 30.7523 82.8713 30.6732C82.9347 30.5307 83.0492 30.4014 83.2147 30.2853L83.352 30.2326ZM94.225 38.7165L93.7919 38.9222L93.2557 39.4234L93.0022 39.4813L92.6879 39.7398L92.1917 39.5758L91.7455 39.7471L91.2704 39.5356L90.8796 39.6462L90.6501 39.4587L90.3096 39.3924L90.225 39.5824L89.3779 39.1199L88.9873 38.9745L88.6388 38.9901L88.4647 38.7418C88.6301 38.7965 88.7603 38.845 88.8553 38.8873C88.7216 38.8467 88.3275 38.7092 87.6729 38.4747L87.6123 38.4192L87.4328 38.3108L87.05 38.3396C86.9832 38.234 86.8407 38.0852 86.6226 37.8932C86.2884 37.7064 86.0658 37.5884 85.955 37.539L85.765 37.4544C85.6612 37.3892 85.5459 37.3284 85.4192 37.272C85.2926 37.2156 85.1518 37.1909 84.9969 37.1978L84.7596 36.836L84.5907 36.7039C84.5432 36.6828 84.4667 36.6202 84.3611 36.5163C83.8035 36.1921 83.7291 35.5708 84.138 34.6524L84.2331 34.4386L84.8325 34.307L85.4977 34.3471L85.8301 34.7512L86.1626 34.8992L86.1309 34.9705C86.261 35.1043 86.3313 35.2874 86.3417 35.5197L86.5212 35.6281L86.3837 35.9369L86.6607 36.1456L86.7108 36.2248L89.8357 37.3884L90.6249 37.5975L90.6962 37.6292L90.7966 37.5316L91.1502 37.6322L91.2295 37.5821C91.5831 37.6826 91.9342 37.7251 92.2827 37.7095L92.3593 37.6013C92.3505 37.5784 92.3435 37.5089 92.3383 37.3927L92.209 37.3636L92.006 36.9886L91.7922 36.8934L91.7475 36.6743L91.861 36.611L91.5786 36.5422L91.4838 36.2438C91.4292 36.2385 91.3465 36.2111 91.2357 36.1618C91.0298 36.0701 90.8416 35.9389 90.671 35.7681L90.4572 35.6729L90.3227 35.5276L89.9373 35.4983L89.8424 35.2L89.7712 35.1682L89.555 34.7589L88.9456 34.1461L88.7926 33.8503L87.9641 33.2822L87.9431 33.0736L87.4684 32.35L87.4611 31.4075L87.3558 30.8768L87.8107 29.5994L87.9692 29.4992C88.163 29.1491 88.4307 28.8888 88.7722 28.7183C89.0662 28.6974 89.266 28.5682 89.3717 28.3306L89.7598 28.418C89.8795 28.3195 90.0591 28.2572 90.2984 28.2309L90.7816 28.1045L92.5318 28.2007L92.8248 28.2458L93.321 28.4098L94.2 28.545L95.6541 29.3062L95.6487 29.4461C95.7701 29.5571 95.872 29.7543 95.9545 30.0377L95.9017 30.1564L96.176 30.5632L95.7559 31.0592L95.6132 31.2518C95.3419 31.6054 95.0321 31.7046 94.6838 31.5495C94.3987 31.4226 94.2449 31.1928 94.2222 30.8602L94.254 30.7889L93.9795 30.6383L93.6047 30.5852L93.3911 30.234L93.1719 30.2787C92.9661 30.1871 92.7479 30.1658 92.5173 30.2149C92.2798 30.1092 92.0079 30.102 91.7016 30.1933L91.3928 30.0558L91.105 30.1269L90.7407 30.0501L90.6721 30.0765L90.4978 30.0843L90.1889 30.2029L90.1071 30.1949L89.7452 30.4322L89.4205 30.4584C89.2655 30.6361 89.1484 30.7926 89.0691 30.9281C88.9862 31.1568 88.943 31.3178 88.9394 31.4111C88.9587 31.4956 89.0379 31.6162 89.1768 31.7729L89.1239 31.8917L89.3587 32.1954C89.5697 32.4032 89.7139 32.5908 89.7912 32.758L90.2663 32.9695L90.4587 33.3683L90.9733 33.6828L91.1236 33.9204L91.9336 34.5942L91.9361 34.9083L92.1051 34.7843C92.311 34.876 92.5458 35.0944 92.8095 35.4395L93.2053 35.7011L93.1788 35.8885L93.5589 36.0577L94.0547 36.7339C94.0422 36.975 94.1318 37.2425 94.3235 37.5366L94.5107 37.8192L94.3125 38.0725C94.3529 38.2802 94.3343 38.4711 94.2567 38.6453L94.225 38.7165ZM106.396 36.252C106.333 36.3945 106.13 36.4657 105.789 36.4654C105.69 36.5164 105.54 36.5348 105.338 36.5206C105.074 36.5169 104.88 36.5256 104.757 36.5466L104.332 36.1582C103.994 36.2355 103.627 36.1859 103.231 36.0097L102.978 35.8115L102.68 35.9064L102.038 35.6208L101.518 35.7023C101.372 35.5614 101.22 35.4558 101.062 35.3853C101 35.3958 100.875 35.3781 100.687 35.3322C100.608 35.297 100.531 35.2344 100.457 35.1446L99.9842 36.0155L99.7118 36.6911L99.2704 37.4907L98.9161 38.4145L98.797 38.8737L98.6489 39.2063L98.6642 40.0669C98.5956 40.0932 98.5471 40.1381 98.5189 40.2014C98.4696 40.3123 98.605 40.4769 98.9251 40.6953L98.8457 41.0015L98.9803 41.1468L99.1807 41.4637L99.3073 41.6908C99.4797 41.7297 99.5976 41.7632 99.661 41.7914C99.8035 41.8548 99.9354 41.942 100.057 42.053C100.134 42.0495 100.318 41.9986 100.609 41.9002C100.808 41.837 100.97 41.8336 101.097 41.89C101.113 41.897 101.137 41.9076 101.168 41.9217C101.193 41.9517 101.213 41.9701 101.229 41.9772C101.505 41.7398 101.847 41.6547 102.253 41.7218C102.586 41.8698 102.817 42.0962 102.947 42.4007L102.873 42.567C102.634 43.1054 102.292 43.3612 101.848 43.3345C101.558 43.6036 101.162 43.6834 100.66 43.574L100.259 43.7083L99.9502 43.5709L99.3404 43.4701C99.1997 43.4454 99.0105 43.3802 98.773 43.2744C98.6463 43.218 98.5258 43.1264 98.4115 42.9996L98.1027 42.8622L97.4723 42.0407L97.2903 41.8743L97.0876 40.9872L96.94 40.5515L96.9462 39.1312L97.2533 37.9303L97.4277 37.6664L97.354 37.3205L97.6208 37.0409L97.7347 36.4654L97.975 36.3732L98.16 36.0856L98.2156 35.7688L98.4535 35.3624L98.5277 34.9401L98.6993 34.8742L98.8685 34.4942L98.734 34.3489L98.2404 34.243L97.9503 33.7438L97.879 33.7121C97.404 33.5006 97.2793 33.1415 97.5049 32.6348L97.5366 32.5635L97.4525 31.9853L98.0941 31.7587L98.6457 32.1181L98.9756 32.2081L99.374 32.5278L99.8728 32.7499L100.084 32.2748L100.072 31.4723L100.454 31.4435L100.494 31.0343L100.846 30.3086L100.793 29.9152C100.76 29.6917 100.775 29.5086 100.839 29.3661C100.916 29.192 101.019 29.0671 101.148 28.9915L101.367 28.6907L101.642 28.5852C102.104 28.6964 102.407 28.7837 102.55 28.8472C103.056 29.0728 103.231 29.4258 103.074 29.9061L102.95 29.9932C102.982 30.178 102.969 30.3337 102.913 30.4604C102.906 30.4762 102.88 30.5123 102.836 30.5686L102.725 30.69L102.627 30.8456L102.585 31.1967L102.508 31.3049L102.408 31.6586L102.067 31.8484L101.974 32.3764L101.626 32.9041L101.72 33.2025L101.34 33.5454L102.119 33.7782L103.372 34.4786L104.491 34.7777L104.837 34.9601L104.966 34.9892L105.893 35.4016C106.384 35.6202 106.551 35.9036 106.396 36.252ZM46.9675 37.4431L46.4021 38.0736L45.8054 38.2633L45.6679 38.5721C45.5271 38.5474 45.3441 38.5323 45.1189 38.5269L45.037 38.5189C44.8662 38.6895 44.6902 38.7439 44.5089 38.6822C44.2273 38.8035 43.8163 38.8102 43.2761 38.7025C42.9187 38.866 42.6019 38.8957 42.3257 38.7917L41.9191 38.8099L41.4441 38.5984L41.1088 38.6483L40.9794 38.6192C40.8879 38.6543 40.7682 38.6675 40.6204 38.6586L40.2745 38.7322L39.7282 38.489L39.3374 38.5996L38.2209 38.3587C38.1101 38.3093 37.913 38.2406 37.6297 38.1524L36.9617 38.3103C36.8474 38.1835 36.719 38.0884 36.5765 38.025L36.434 37.9615L36.2254 37.9825L35.8849 37.9163L35.6077 37.9636L35.4202 37.9371L35.478 38.4466L35.0711 38.977L34.9359 39.856L34.6689 40.3917L34.6687 40.6478C34.9801 40.8433 35.0512 41.1311 34.882 41.5112C34.7199 41.8754 34.3035 42.0221 33.633 41.9512L32.8728 41.8689L32.5278 40.6622L32.6526 39.5509L33.0544 38.6483L32.9863 37.9065L33.3401 37.7509L33.3958 37.4342L33.5041 37.2548C33.0907 37.0327 32.7916 36.8521 32.6069 36.713L32.3069 35.2133L34.1412 35.8877L34.247 35.6502L34.4926 35.418L35.0318 34.4627L35.214 34.3731L35.5921 33.4599L35.8326 33.1116L36.4512 31.8502L36.9557 31.4202L37.0243 31.3938L37.0323 31.312C37.1873 31.1344 37.3845 31.0324 37.6238 31.0062L38.1569 31.2151L38.3232 31.2891C39.0041 31.5922 39.2317 31.9972 39.0061 32.5039C38.9145 32.7097 38.6768 32.9454 38.2929 33.2109L38.24 33.3297C38.1343 33.5672 38.1359 33.862 38.2447 34.2141L37.8462 34.1504L37.558 34.7337L37.1672 34.8443L37.1142 35.2191L36.7656 35.4908L36.6596 35.9844L36.4695 36.1559L36.398 36.3802L36.6066 36.3592L37.0816 36.5707C37.3809 36.4952 37.6844 36.5166 37.9924 36.6347L38.4518 36.4977C38.5133 36.6579 38.5845 36.775 38.6654 36.8489C38.8748 36.8473 39.2321 36.8546 39.7372 36.8708L40.0671 36.9607L40.5529 36.8924L40.7429 36.977L40.7878 36.9401L40.9541 37.0141C41.2708 37.1551 41.6052 37.1712 41.9572 37.0623L42.4586 37.3425L42.5352 37.2343L42.9312 37.2398L43.1927 37.1001C43.2489 37.1441 43.3246 37.1873 43.4196 37.2296L43.8132 36.921C43.9205 36.8929 43.998 36.8894 44.0455 36.9105C44.093 36.9317 44.1105 36.9775 44.0982 37.0479C44.1809 36.9898 44.3235 36.9679 44.5259 36.9821L44.6025 36.874L44.8217 36.8292L44.93 36.6498L44.9487 36.2881L44.8539 35.9898L44.685 35.8576L44.4029 35.2767L43.6721 34.5529C43.382 34.1391 43.0989 33.7948 42.8228 33.5201L42.3476 33.5647L41.8623 32.8648L41.2948 32.6691L41.0337 32.2967L40.6537 32.1275L40.4058 31.7894C40.3899 31.7823 40.3583 31.7682 40.3108 31.7471C40.2562 31.7418 40.2131 31.7321 40.1814 31.718C39.9914 31.6334 39.8217 31.4819 39.6722 31.2636L39.1339 30.9385L38.6852 30.7957L38.2974 30.4522L37.7457 30.3489L37.6956 30.2697L37.2547 30.3011L37.0437 30.0079L36.9908 30.1267L36.4208 29.8729L35.8875 29.92L35.357 29.7692L34.5782 29.7925L34.415 29.0083C34.3448 28.6545 34.3908 28.2955 34.553 27.9313L34.9412 27.7626C35.1244 27.5216 35.3726 27.4329 35.6858 27.4965C36.0061 27.5442 36.3343 27.5954 36.6704 27.6502C36.7337 27.6784 36.7971 27.7066 36.8604 27.7348C36.9167 27.7789 36.9448 27.8009 36.9448 27.8009L37.1005 27.8987L36.9975 27.9382L37.5598 28.0178L37.6099 28.097C37.6644 28.1023 37.7392 28.1261 37.8342 28.1684C37.9767 28.2319 38.1095 28.3384 38.2326 28.4881L39.1827 28.9111L39.8741 29.2759L41.0959 30.0475L41.3359 30.4674L41.7107 30.5205L42.2542 30.9617L42.9562 31.3027L42.9984 31.4637L43.4972 31.6858L43.8954 32.2616L44.3968 32.5417L44.4415 32.7609C44.7266 32.8878 44.9658 33.1176 45.1591 33.4504L45.6765 33.5669L45.655 34.1265L45.8317 34.4328L46.2355 34.6126L46.3433 35.2014L47.0132 36.1258L46.8546 36.4821L46.9675 37.4431ZM55.0221 44.3022L54.6893 44.6663C54.506 45.078 54.3377 45.392 54.1844 45.6084L53.9362 45.7825L53.8198 46.0437L53.627 46.1571L53.4077 46.4579L53.0301 46.6029L52.5995 47.1227L52.3777 47.1093L52.1664 47.3283L51.8074 47.3677L51.4376 47.6868L51.0891 47.7025L50.9384 47.9769L50.4131 47.9422C50.0804 48.1356 49.7459 48.2049 49.4098 48.1501L49.3042 48.1316C48.9345 48.3654 48.5675 48.4013 48.2033 48.2391C48.0027 48.2636 47.7994 48.23 47.5936 48.1384L47.282 48.1989L47.0128 48.1644L46.5982 48.2644L46.3 48.1032L45.9252 48.0502L45.5955 47.7041L44.6058 47.1781L44.4928 46.4732L44.2135 45.6943L44.5014 45.3671L44.5047 44.4009L44.8084 44.1662L44.9435 43.5432L45.2209 43.2398C45.2879 43.004 45.3426 42.8386 45.3849 42.7436C45.5188 42.4428 45.6967 42.2563 45.9185 42.1843C46.0048 42.033 46.2241 41.8176 46.5763 41.538L46.695 41.5908L46.7215 41.4034L46.9408 41.1026L47.0995 40.7463C47.2896 40.6602 47.4032 40.5969 47.4401 40.5565L47.5169 40.1922L47.5592 40.0972C47.7688 39.9249 47.9264 39.72 48.0322 39.4824L48.8377 39.0157C48.8377 39.0157 48.8605 39.0069 48.9063 38.9894C48.9679 38.9788 49.0216 38.9648 49.0674 38.9472L49.0859 38.8416L49.1809 38.8839L49.717 38.6388L49.984 38.103L50.673 38.1537C50.9581 38.1098 51.2064 37.9358 51.4177 37.6314L51.7265 37.7689C51.943 37.7515 52.1225 37.7745 52.265 37.8379C52.4075 37.9014 52.528 37.993 52.6265 38.1127L52.8772 38.2528L53.6005 38.2902L53.7956 38.747L53.9828 39.0296L54.1728 39.1142L54.4445 39.4629L54.6345 39.5475C54.7558 39.8291 54.877 40.1962 54.9981 40.6486L54.9927 40.7885L55.1167 40.9575L55.33 41.8209L55.2842 43.1382L55.1785 43.3757L55.0221 44.3022ZM53.2007 44.1743L53.2298 44.045C53.1683 43.8848 53.1578 43.7378 53.1984 43.6041L53.3225 43.517L53.3097 42.9706L53.5581 42.5404L53.516 42.3794C53.3806 42.1294 53.3262 41.9533 53.3527 41.8513C53.2384 41.7245 53.2376 41.5344 53.3504 41.2811L53.2185 41.1939L53.1449 40.5919L53.0052 40.3305L52.591 39.9184L52.4221 39.7863C52.3271 39.744 52.2779 39.6841 52.2744 39.6067L51.5667 39.9177L50.9618 40.4453L50.3467 40.4845L50.1591 40.714L49.8687 40.727L49.4988 41.3023L49.1503 41.3179C48.9883 41.5114 48.8649 41.7031 48.7803 41.8932L48.2417 42.0802L48.3287 42.2044C48.2441 42.3944 48.0988 42.5289 47.8929 42.608C47.7819 42.7294 47.6481 42.8595 47.4913 42.9984L47.4067 43.1885L47.2932 43.2517L47.19 43.5473L46.6432 44.0723L46.6379 44.2122L46.3418 44.8773L46.0987 45.1675L45.9744 45.5106L46.0507 45.9146L46.3303 46.1814L46.428 46.2818L46.6603 46.2714L47.2567 46.5938L47.4574 46.3986L47.5524 46.4409C47.6475 46.4832 47.6923 46.5316 47.687 46.5862L47.9325 46.6101L48.0908 46.766L48.4947 46.6897L48.574 46.6396L48.8089 46.6872C48.9973 46.5624 49.3361 46.5045 49.8254 46.5137L49.9257 46.4161L50.5488 46.295L50.9793 46.0313L51.4439 46.0105L51.5206 45.9023L51.7557 45.6939L51.8931 45.3851L52.2839 45.2745L52.4529 45.1506L52.6352 45.0609C52.6564 44.8427 52.6847 44.694 52.7199 44.6148C52.7834 44.4723 52.8979 44.343 53.0634 44.227L53.2007 44.1743ZM65.0804 51.228L64.4781 51.8137L64.4566 52.3733L64.2982 52.4736L64.034 52.8113L63.6959 53.0592L63.5797 53.0644L63.3313 53.4946L62.8826 53.3517C62.5693 53.4589 62.2657 53.5229 61.9717 53.5438L61.8398 53.4566L61.4306 53.4168L61.2063 53.3453L60.681 53.3107L60.2642 52.8405L60.2141 52.7613L59.7997 52.6053L59.8736 52.6951L59.2508 52.3039L58.5936 52.1821L58.4512 51.8626L57.9313 51.688L57.8047 51.4609C57.7889 51.4538 57.722 51.4335 57.6041 51.4L57.5407 51.5425C57.4772 51.685 57.39 51.817 57.279 51.9383L57.1494 52.4214L56.8536 52.5743C56.7302 52.9368 56.6297 53.2051 56.5521 53.3793L56.2165 53.9413L55.9096 54.8862L55.6139 55.0391L55.5503 55.4377L55.3733 55.6435L55.484 55.7782L55.3254 56.1345C55.3148 56.2436 55.2989 56.3219 55.2777 56.3694C55.2143 56.5119 55.0743 56.5919 54.8578 56.6094L54.8048 56.9842L54.6014 57.1214L54.1309 58.0503C53.5899 59.1376 53.0977 59.5825 52.6543 59.3851C52.5593 59.3428 52.3104 59.1561 51.9076 58.825L52.2961 58.1441L52.6189 57.0356L53.0468 56.7138L53.3032 56.2018L53.5254 55.447L53.8529 55.2228L53.8824 54.5813L54.1756 54.3703L54.2446 53.8318L54.6249 53.4889C54.6356 53.3798 54.611 53.2645 54.5512 53.143C54.5073 53.0286 54.4924 52.9555 54.5065 52.9239C54.5277 52.8764 54.6042 52.8535 54.7362 52.8554C54.7415 52.8008 54.7689 52.7181 54.8182 52.6073C54.9099 52.4014 55.0772 52.1534 55.3203 51.8631L55.2835 51.5622L55.4923 51.2851L55.4212 50.9973L55.7513 50.8312L55.9629 50.1001L56.539 49.1897L56.5102 48.8069L56.9724 48.472L56.8037 48.0838L57.1709 47.7065L57.0575 47.5137L57.2611 47.1205L57.6257 46.6852L57.668 46.5902L57.734 46.5057L57.8504 46.2445L57.9164 46.16L57.9668 45.7271L58.2654 45.3762L58.2841 45.0145L58.5377 44.7006L58.485 44.5633L58.7678 44.1199L58.8129 43.8269L58.9661 43.6106L58.9689 43.4126L57.9446 43.4119L58.0081 43.2694L57.8312 43.2191L57.4642 43.3403L57.2504 43.2451L56.7962 43.4983L56.601 43.2975L56.3765 43.4822C55.805 42.6775 55.5792 42.1406 55.6991 41.8714C55.7837 41.6814 55.9254 41.5547 56.1243 41.4915L56.2592 41.1246C56.8154 41.0687 57.2949 41.1209 57.6978 41.2813L57.9381 41.1891L58.8357 41.2187L59.076 41.1265L59.7199 41.4701L59.8598 41.4755L60.4437 40.7393L60.9609 41.1119L61.066 41.8986L61.3749 41.7801L61.665 42.2792C61.8708 42.3708 62.0511 42.4985 62.2059 42.6623L62.2295 42.929L62.4275 42.9317L62.554 43.1589C62.6649 43.2082 62.7484 43.2549 62.8047 43.2989L62.7175 43.4309L63.3141 43.4973L63.4485 43.8986L63.8363 44.2421L63.9759 44.7596L64.3873 45.3696L64.3899 45.4277L64.7778 45.7712L64.7143 45.9137C64.7987 46.0651 64.8373 46.2341 64.8301 46.4206L64.9673 46.624L64.9935 46.9487L65.2785 47.0756L65.067 47.5507L65.1592 47.7909L65.1327 47.9784L65.3491 48.1316C65.2186 48.5099 65.184 48.8645 65.2454 49.1954L65.1714 49.3617L65.3032 49.705L65.0865 50.0638L65.0861 50.576L64.9353 51.1065L65.0804 51.228ZM63.1404 50.7912L63.1695 50.6619L63.2356 50.5774L63.2834 50.0864L63.4736 49.915L63.4632 49.6826L63.5452 49.4345L63.5244 48.9699L63.5457 48.6663L63.4643 47.8901L63.2851 47.5257L63.2986 47.0479L63.1271 46.8577L62.9692 46.1897L62.568 46.068L62.4521 45.5611L62.1935 45.5028L62.1647 45.12L62.0803 45.054L61.7477 44.9059L61.4573 44.9189L61.3519 44.6443L61.0932 44.5861L61.0723 44.3775L60.6764 44.1159L60.5733 44.4115L60.3249 44.8416L60.3035 45.1452L60.4986 45.6021L59.9835 46.0558L59.8486 46.4226L59.4126 47.0823C59.3262 47.4043 59.3084 47.7 59.3592 47.9693L59.1479 48.1883C59.1567 48.2112 59.1576 48.2305 59.1505 48.2464C59.1294 48.2939 59.0343 48.3369 58.8653 48.3755L58.9364 48.6633L58.6907 48.8955L58.5058 49.1831L58.429 49.5473L58.2677 49.8456L58.7665 50.0676C58.844 50.0642 58.9381 50.0871 59.049 50.1365C59.1915 50.1999 59.297 50.3038 59.3655 50.4482C59.3814 50.4552 59.4166 50.4614 59.4711 50.4667C59.5028 50.4808 59.5265 50.4914 59.5424 50.4984C59.5899 50.5196 59.6699 50.5742 59.7825 50.6623C59.8987 50.6571 59.9963 50.6721 60.0755 50.7073C60.2022 50.7637 60.3068 50.8483 60.3895 50.961L60.6033 51.0562L60.7721 51.1883L61.3106 51.2573L61.5849 51.664C61.7063 51.7749 61.7511 51.8234 61.7194 51.8093L62.3717 51.5589L62.5672 51.2475L62.7071 51.2529L62.7205 51.0311L62.9713 50.9152L63.1404 50.7912ZM79.3009 60.1209C79.2163 60.3109 78.9716 60.477 78.5667 60.6193L78.345 60.606L78.0835 60.7457L77.6031 60.6741C77.4746 60.7497 77.3707 60.7699 77.2915 60.7346C77.2757 60.7276 77.2634 60.7126 77.2546 60.6897C77.2229 60.6756 77.1992 60.6651 77.1834 60.658C76.7574 60.6771 76.299 60.5774 75.8082 60.3588L75.6182 60.2742L75.0772 59.8911L74.758 59.5213L74.1939 58.3593L74.2894 57.6334L74.0468 57.1555C74.1225 57.1133 74.1921 57.0209 74.2555 56.8784C74.2978 56.7834 74.305 56.5968 74.277 56.3188L74.6021 55.7804L74.6444 55.6854C74.729 55.4954 74.7828 55.2253 74.806 54.8751L75.2657 54.226L74.682 54.706L74.3046 54.5949L74.035 55.0726C73.8801 55.0795 73.7156 55.0442 73.5414 54.9666L73.0263 55.4204L72.5589 55.6392C72.3688 55.7253 72.2227 55.7551 72.1206 55.7286L72.0282 55.7444L70.7819 56.2426L70.6868 56.2003L70.0029 56.5219L69.4802 56.5453L69.1052 56.7483L68.4849 56.6714L67.5636 56.6312L67.1943 56.1821C66.8776 56.0411 66.7193 55.7999 66.7196 55.4585L66.5587 55.2445C66.5798 55.197 66.6159 55.1372 66.667 55.0651C66.7023 54.9859 66.7269 54.9305 66.741 54.8988L66.5091 54.3971L66.6675 54.2969L66.6786 53.5049L66.8159 53.4522L66.7896 53.3836C66.8037 53.3519 66.8248 53.3044 66.853 53.2411C66.8583 53.1865 66.868 53.1434 66.8821 53.1117C66.9597 52.9375 67.0575 52.7818 67.1755 52.6446L67.4742 52.0377L67.6012 51.4966C67.7368 51.4051 67.8258 51.3119 67.8681 51.2169C67.9174 51.1061 67.9157 50.982 67.863 50.8447L68.2089 50.771L68.3358 50.486L68.5898 49.6598L69.5279 48.256C69.6407 48.0027 69.7351 47.5988 69.8111 47.0445C70.0842 46.5589 70.5401 46.4299 71.1788 46.6573L71.3371 46.8132L71.6485 47.0087L71.8645 47.6741L71.4471 48.2283L70.9448 49.2284L70.6671 50.044L70.3977 50.2656L70.3844 50.4873L70.0964 50.8145L69.9906 51.052L69.9114 51.1021C69.9061 51.1567 69.8823 51.2314 69.84 51.3264C69.7483 51.5323 69.6215 51.732 69.4595 51.9254L69.5042 52.1446L69.2505 52.4586L69.1712 52.7647L69.0231 53.0973C69.06 53.2275 69.0467 53.3639 68.9832 53.5064C68.9268 53.6331 68.8388 53.7457 68.719 53.8442L68.6767 53.9392C68.636 54.2436 68.5981 54.4354 68.5628 54.5146L68.6814 54.8236C68.8046 54.8025 68.9507 54.7727 69.1197 54.7341C69.2377 54.5969 69.3944 54.5433 69.5897 54.5734L69.6955 54.3358C69.7905 54.3781 69.9515 54.4214 70.1785 54.4655L70.3212 54.2729L70.799 54.2864L70.902 54.2469C71.0622 54.1854 71.2901 54.1635 71.5857 54.1813L71.628 54.0863L72.2274 53.9547C72.4722 53.7032 72.7582 53.5934 73.0856 53.6253C73.3373 53.5286 73.5019 53.4786 73.5793 53.4751L74.0679 53.2088L74.0996 53.1376L74.2158 53.1324L74.4718 53.1325L74.7386 52.8529L75.3326 52.8612L75.4382 52.8797C75.4382 52.8797 75.5183 52.849 75.6785 52.7875L75.7737 52.5737L75.9373 52.5897C76.0976 52.3575 76.3089 52.2238 76.5712 52.1888L77.287 51.5399L77.5961 51.1652L77.6859 51.0913L77.7809 51.1336L78.0001 51.0889L77.8787 50.978C78.1798 50.7705 78.4483 50.5295 78.6844 50.2552L79.3837 50.5381L79.7291 51.2326L79.7974 51.7184L79.0814 52.6234L78.5136 52.9398L77.8162 53.7393L77.5152 53.776L77.3566 54.1323L77.0977 54.3301L76.9787 54.7894L76.7146 54.871L76.4712 55.6734L76.0428 56.7634L76.1616 56.8163L75.8866 57.4339L76.0394 57.9857L76.2741 58.2894L76.245 58.4188C76.3488 58.484 76.4658 58.5835 76.5959 58.7173L77.1686 59.0292L77.5672 59.0928L78.346 59.0696C78.5008 59.0626 78.6733 59.1015 78.8633 59.1861C79.3383 59.3976 79.4842 59.7092 79.3009 60.1209ZM87.8724 62.4856C87.7948 62.6598 87.668 62.7741 87.492 62.8286C87.2807 62.9622 86.9868 63.0685 86.6101 63.1474L86.2985 63.2079L85.9579 63.3978L85.7018 63.3976L85.2741 63.4633L85.026 63.3813L84.8887 63.4341C84.5297 63.3881 84.2137 63.4371 83.9409 63.5813C83.7948 63.6111 83.6742 63.6048 83.5792 63.5625C83.5159 63.5343 83.464 63.5018 83.4235 63.4648C83.0838 63.5033 82.7002 63.4273 82.2727 63.237C81.9085 63.0748 81.685 62.9374 81.6024 62.8247L81.2806 62.3968L81.2438 62.0959L81.2756 62.0246C81.3672 61.8188 81.3542 61.6137 81.2364 61.4095L81.3529 60.8922L81.258 60.5938L81.5305 59.6621L81.7394 59.129L81.9324 58.7595L82.0434 58.6381C82.0382 58.522 82.0602 58.4085 82.1096 58.2976C82.4849 57.6678 82.7113 57.2658 82.7888 57.0916L82.7654 56.5689L83.1378 56.3078L83.4734 55.7457L83.6057 55.3208L83.9069 55.028L83.9758 54.4895L84.3377 54.2521L84.4566 54.0489L84.8267 53.2176L84.972 53.0831L85.3924 52.0749L85.9184 51.0853L85.908 50.853L86.2015 50.1298L86.5583 49.5202L86.5928 49.251L87.3698 47.8893C88.1054 48.0271 88.4336 48.0783 88.3544 48.0431C88.6077 48.1559 88.7537 48.3821 88.7922 48.7218L88.7551 48.933L88.9527 49.4479L88.5406 49.8621L88.5458 49.9782C88.3802 50.265 88.2525 50.4453 88.1627 50.5192L87.9881 51.0391L87.9059 51.5433L87.5176 51.968C87.3977 52.2372 87.2489 52.465 87.071 52.6515C87.0358 52.7307 86.9635 52.8503 86.8543 53.0104L86.7671 53.1423L86.8645 53.4988L86.6532 53.7177C86.6285 53.8585 86.6055 53.9527 86.5844 54.0002C86.5421 54.0952 86.454 54.2077 86.3202 54.3379L86.2725 54.5728L85.7916 55.2694L85.5695 55.7682L85.1812 56.193L85.0752 56.6866L84.5149 57.6894L84.5333 57.8399L84.1713 58.3333L83.8277 58.9772C83.7537 59.0581 83.7132 59.1065 83.7062 59.1223C83.5863 59.3915 83.4797 59.6097 83.3863 59.7768L83.357 60.1622L83.1509 60.4973L83.1559 60.8696L83.0793 60.9778C83.1391 61.0992 83.1698 61.2647 83.1714 61.4741L83.3851 61.5693L83.6516 61.8018L83.8787 61.6752L84.1031 61.7466C84.2122 61.7573 84.2905 61.7732 84.338 61.7943L84.4093 61.826C84.5817 61.8649 84.7436 61.8421 84.895 61.7577L85.0693 61.7499C85.2577 61.6251 85.4927 61.5874 85.7742 61.6369C85.8816 61.6088 86.0884 61.5491 86.3947 61.4578C86.4934 61.2361 86.702 61.1297 87.0206 61.1387C87.2581 61.2445 87.4341 61.2754 87.5485 61.2315C87.844 61.42 88.0032 61.5952 88.026 61.7571C88.0716 61.9103 88.0204 62.1531 87.8724 62.4856ZM96.2362 66.9779C96.1516 67.1679 95.9033 67.342 95.4914 67.5001C95.2994 67.7182 95.089 67.8712 94.8601 67.959L94.7071 67.9193L94.2449 68.2543L93.7856 68.1352L93.2074 68.2193L92.7795 68.5411L92.5394 68.3772C92.33 68.3789 92.1663 68.3629 92.0484 68.3294L91.8107 68.4797C91.7703 68.4427 91.7025 68.4031 91.6075 68.3608C91.4017 68.2691 91.1403 68.3235 90.8234 68.524L90.6177 68.0909C90.5473 68.0785 90.4488 68.0441 90.3221 67.9877C90.1163 67.8961 89.9562 67.7869 89.8419 67.6601L89.4381 67.4803L89.301 67.2769C88.7415 66.914 88.4637 66.5152 88.4675 66.0805L88.4993 66.0092L88.2777 65.7398L88.3149 65.2726L88.1145 64.9557L88.2731 64.5994L88.4534 63.4274L88.8816 62.5935L89.1459 62.2557L89.3679 61.7569L89.6559 61.4298L89.7062 61.2529L89.9993 61.0419L89.9307 61.0683C89.9941 60.9258 90.1007 60.793 90.2504 60.6699L90.3032 60.5511L90.4858 59.9493C90.6056 59.6801 90.8302 59.4955 91.1593 59.3954C91.1893 59.3708 91.2183 59.3268 91.2465 59.2635C91.2747 59.2001 91.2995 59.0593 91.3207 58.8411C91.3649 58.6141 91.4046 58.461 91.4398 58.3819C91.5244 58.1918 91.6601 58.0151 91.8467 57.8515C91.8888 58.0979 92.0286 58.274 92.2661 58.3798L92.3374 58.4115C92.3972 58.3622 92.5002 58.3227 92.6463 58.2929C92.9492 57.9534 93.2715 57.6984 93.613 57.528L93.7503 57.4752C93.7785 57.4119 93.9071 57.251 94.1361 56.9924L94.3261 57.077L94.4265 56.9794L94.6376 57.0165C94.7732 56.9251 94.8524 56.8749 94.8753 56.8662C94.9211 56.8486 95.1411 56.8232 95.5353 56.79C95.648 56.7074 95.7889 56.6468 95.9579 56.6082C96.0353 56.6047 96.1286 56.6083 96.2377 56.6189L96.3961 56.5187C96.8871 56.5665 97.188 56.6151 97.2989 56.6645C97.4256 56.7209 97.5302 56.8054 97.6129 56.9181L97.7422 56.9472L97.8662 57.1163C97.9927 57.3434 98.1299 57.5467 98.2776 57.7264L98.5439 58.2149L98.5016 58.3099C98.7389 58.7571 98.7412 59.242 98.5086 59.7645L98.3316 59.9703L98.0538 60.7859L97.7766 60.8332L97.2641 61.345L96.5908 61.6429L96.3978 62.0123C95.729 62.1509 95.1314 62.2359 94.6052 62.2672C94.3639 62.4255 94.0929 62.4376 93.792 62.3036L93.7208 62.2719L93.1426 62.356L92.7626 62.1868L92.0868 62.1705L91.7544 61.7664L91.7069 61.7453C91.6188 61.8578 91.5025 62.0338 91.3581 62.273L91.1046 62.3309L90.954 62.6054L90.6317 62.9457C90.51 63.3469 90.4244 63.6029 90.3751 63.7138L90.2484 63.7427C90.1567 63.9486 90.0818 64.0955 90.0237 64.1834C90.0166 64.1993 89.9981 64.2195 89.9682 64.2441C89.9541 64.2758 89.9435 64.2995 89.9365 64.3154C89.8801 64.442 89.8976 64.5732 89.989 64.7087C89.9519 64.9199 89.9782 65.0739 90.0679 65.1708L90.1707 65.3873L90.6298 65.7625L90.5981 65.8337L90.767 65.9659L91.5534 66.3729L92.0602 66.5132L92.3717 66.4526L92.5354 66.4686L92.9315 66.2181L93.0608 66.2472L93.7393 66.3215C93.8519 66.2389 93.9972 66.1897 94.1749 66.174L94.2991 66.087C94.644 66.1646 94.9001 66.0794 95.0674 65.8314C95.3878 65.7084 95.7222 65.7245 96.0706 65.8796L96.1656 65.9219C96.3113 66.4042 96.3349 66.7562 96.2362 66.9779ZM96.9303 59.0903C96.9515 59.0428 96.97 58.9372 96.986 58.7736L96.8778 58.6969L96.8197 58.6995C96.8039 58.6925 96.7722 58.6784 96.7247 58.6572C96.686 58.659 96.6508 58.6528 96.6191 58.6387C96.6033 58.6316 96.5831 58.6131 96.5585 58.5832C96.5268 58.5691 96.503 58.5585 96.4872 58.5515L96.1757 58.612L95.9513 58.5406L95.8114 58.5352L95.175 58.878L94.8291 58.9517L94.1529 59.4475L93.8757 59.4948C93.7084 59.7429 93.4953 59.9231 93.2365 60.0356L93.0675 60.1596C93.291 60.1263 93.5136 60.159 93.7353 60.2577L93.9333 60.2605L94.0997 60.0784L94.4217 60.2502L94.7386 60.0498L94.8811 60.1132L95.1001 60.3246L95.3775 60.0212L95.5437 60.0952L95.6601 59.8339L96.0006 59.9001L96.1036 59.8606L96.2462 59.668L96.7559 59.3542C96.8229 59.2891 96.881 59.2011 96.9303 59.0903ZM109.8 64.7635L109.261 65.4627L108.33 65.1902L107.717 65.2874L107.472 65.0074L107.055 65.0494L106.635 65.0333L106.323 65.0938L106.281 65.1888L105.677 65.2043L105.154 65.4838L104.987 65.4097C104.614 65.5661 104.358 65.6513 104.219 65.6653L103.643 66.0635L103.503 66.0582C103.399 66.1637 103.259 66.329 103.083 66.5542L102.698 66.5249L102.428 66.7465L102.133 66.8994L101.927 67.2345L101.705 67.2212L101.546 67.5775L101.443 67.617C101.455 67.7173 101.472 67.8291 101.493 67.9523L101.073 67.9362L100.888 68.2238L100.471 68.5219L100.476 68.8941L99.977 69.1841C99.9382 69.3566 99.9046 69.4745 99.8764 69.5378C99.8694 69.5537 99.8553 69.5853 99.8341 69.6328C99.7972 69.6733 99.7716 69.7094 99.7575 69.741L99.7098 69.9759L99.9233 70.5833L99.3713 70.9921L98.9911 71.0789L98.178 71.1154L97.4578 70.3678L97.701 69.8215L97.7011 69.5654L97.931 69.2409C98.0122 68.9734 98.0809 68.7764 98.1373 68.6497C98.1585 68.6022 98.1946 68.5424 98.2457 68.4702C98.2809 68.3911 98.3056 68.3356 98.3197 68.304L98.4017 68.0559C98.3402 67.8957 98.3412 67.7443 98.4046 67.6018C98.461 67.4751 98.5799 67.3573 98.7613 67.2483C98.7965 67.1691 98.8864 66.9246 99.031 66.5146L99.134 66.4751L99.2002 66.1346L99.3746 65.8707L99.4011 65.6833L99.7156 65.1687L99.6789 64.8677L99.8902 64.6487L99.9327 64.2977C99.9908 64.2097 100.055 64.0865 100.126 63.9282C100.231 63.6907 100.27 63.5182 100.242 63.4109L100.401 63.3106L100.496 62.8408L100.42 62.4368L100.708 62.1097L100.676 61.9249L100.835 61.3125L100.919 61.1225C100.883 60.9922 100.896 60.8559 100.959 60.7133C101.1 60.3967 101.569 60.2826 102.364 60.3711L102.905 60.7542L102.823 61.2584L102.923 61.6729L102.566 62.2825C102.472 62.6203 102.373 62.9934 102.267 63.4016L102.169 63.8134C102.171 63.8521 102.148 63.9462 102.1 64.0958C102.058 64.1908 101.972 64.2761 101.844 64.3517L101.704 64.8585L101.424 65.3599L101.223 65.5551L101.252 65.6818L101.193 65.9405C101.338 65.872 101.446 65.7779 101.518 65.6582L101.772 65.3443C101.862 65.2704 101.965 65.2309 102.081 65.2257L102.335 64.9117L102.752 64.8697L102.926 64.6058L103.314 64.4371L103.663 64.1655C103.967 64.0354 104.229 63.981 104.447 64.0023L104.526 63.9522L104.888 63.7148L105.147 63.7731L105.25 63.7336L105.408 63.6333L105.733 63.6072L105.95 63.5043L106.081 63.5916L106.314 63.5811L106.472 63.4809L106.821 63.4653L107.341 63.3838L107.995 63.4476C108.231 63.5146 108.357 63.5517 108.373 63.5587C108.366 63.5746 108.362 63.5825 108.362 63.5825C108.347 63.5754 108.335 63.5798 108.328 63.5957L108.352 63.6062C108.415 63.6344 108.524 63.6451 108.679 63.6381C108.786 63.61 108.911 63.6277 109.054 63.6912C109.117 63.7194 109.221 63.7846 109.365 63.8867C109.77 64.0859 109.915 64.3781 109.8 64.7635Z" fill="white"/>
</svg>
